/* XPM */
static char *result[] = {
/* columns rows colors chars-per-pixel */
"64 64 103 2 ",
"   c #1E1E1E",
".  c #3B2E15",
"X  c #3A2F19",
"o  c #3E3016",
"O  c #3C311B",
"+  c #242424",
"@  c #2B2B2B",
"#  c #332E26",
"$  c #3D3421",
"%  c #3E372B",
"&  c #343434",
"*  c #3D3830",
"=  c #3C3C3C",
"-  c #433417",
";  c #443419",
":  c #483619",
">  c #46381E",
",  c #493919",
"<  c #533C1C",
"1  c #5A3F1F",
"2  c #423622",
"3  c #463923",
"4  c #4C3C23",
"5  c #433B2C",
"6  c #4A3E28",
"7  c #553F21",
"8  c #503F29",
"9  c #443E33",
"0  c #5D411F",
"q  c #4D422D",
"w  c #564124",
"e  c #5C4020",
"r  c #53442C",
"t  c #59442A",
"y  c #5B482F",
"u  c #464137",
"i  c #4D4333",
"p  c #46413A",
"a  c #4B453B",
"s  c #4E483E",
"d  c #534532",
"f  c #574B35",
"g  c #5B4A36",
"h  c #51473A",
"j  c #524A3C",
"k  c #5A4D3B",
"l  c #5D513E",
"z  c #634422",
"x  c #6A4625",
"c  c #6D4825",
"v  c #624729",
"b  c #6B4B2C",
"n  c #724A27",
"m  c #744C29",
"M  c #794D29",
"N  c #634C34",
"B  c #6B4E36",
"V  c #604E3B",
"C  c #675037",
"Z  c #6C5237",
"A  c #64513C",
"S  c #6A533C",
"D  c #434343",
"F  c #4D4943",
"G  c #4C4C4C",
"H  c #534C43",
"J  c #514E4A",
"K  c #575046",
"L  c #5A5244",
"P  c #54514C",
"I  c #5A554B",
"U  c #545453",
"Y  c #595753",
"T  c #5B5956",
"R  c #5B5B5B",
"E  c #635444",
"W  c #6A5642",
"Q  c #655846",
"!  c #6D5944",
"~  c #645A4D",
"^  c #695B4C",
"/  c #635D56",
"(  c #615F5B",
")  c #656056",
"_  c #6E6254",
"`  c #64615D",
"'  c #6B655C",
"]  c #76695E",
"[  c #636363",
"{  c #6A6663",
"}  c #6C6964",
"|  c #6C6C6C",
" . c #746D66",
".. c #716F6E",
"X. c #72716E",
"o. c #7B736C",
"O. c #737373",
"+. c #797775",
"@. c #7C7976",
"#. c #7B7B7B",
"$. c #838383",
"%. c #8B8B8B",
"&. c #939393",
/* pixels */
"{ #.#.g < 0 e c z e 7 z 1 1 1 0 0 0 0 7 z 1 < ; : 1 1 1 z 1 < , j R O.#.+.X.O.| D @ @ @ @ @ @ = R | ( R R U G G G G G R R [ | O.",
" .O.O.R q , 0 x z e 0 7 1 z 7 1 0 0 1 0 z 1 1 : - < 0 1 7 , : j ( O.#.O.O.O.O.#.R & @ @ @ @ = R [ [ R R U G U U R [ [ [ [ [ [ | ",
" ...O.} T q < x z 1 e 0 0 0 0 0 < < 0 < 1 z 1 - ; 1 1 < , s P R [ U y w t e j R [ U = @ & = R | [ R R U U R [ R [ [ [ [ [ [ [ [ ",
"H } O.O.[ Y q z z 0 e e e 0 0 0 < < < 0 1 7 < - ; , 7 , H R ..T d w < : : : ; > K [ U G G R [ [ R [ [ [ [ [ R R U U G U U G U G ",
"H U | ..O.| r 0 z 1 e e e e e e , 0 0 0 0 0 q - > , H R ..O.( d < , , : ; ; - ; u [ | } [ [ [ R R R R R R R R R U R U R U R R R ",
"H G U [ ....h < 1 e e 1 e 7 1 e 0 0 0 0 w - - > H ( ..O.{ A t , , , : : ; - ; - X J #.&.$.[ R R U U G U G U G G G G U U G G G G ",
"H G G U [ O.[ i < 1 e e e 1 e e 0 0 0 0 o - u J ( ..O./ g 7 , , : , , : - - ; - X H %.%.| R R G G G G G G G G G G G G G G G G G ",
"H J G J U | O.R 8 < 1 e 1 e e e 0 0 - q q j R [ | { V t , , , , , - ; ; - - - . X J $.%.[ R U G G G G G G G G G G G G G G G G G ",
"F G G G G U O.| T 8 7 < 7 1 1 < w > > H ) [ X.X.I r w 0 , , , - , - - , o o - o X H $.#.R U G G G G G G G G G G U G G G G G G G ",
"F G G G G G ..O.| T d 7 < < < 3 6 j T | O.| ' f r 0 - - , , , , , - - , - X o o X J #.O.R U G G G G G G G G G G G G G G G G G G ",
"F G G G D G | O.O.| Y 9 3 4 3 9 J ( X.+.} ~ f w 0 , - , , - , , , - , , , o . . % U #.O.R U G G G G G G G G G G G G G G G G G G ",
"D G G G G D [ O.O.O.[ P J J / ( [ O.O.} l r w w , , 0 , , , , - , o - , o . . . u [ #.X.R U G G G G G G G G G G G G G G G G G G ",
"D G G G D D | | [ [ R U R [ #.$.$.@.' l w 0 , , 0 , , , , - , , , o - , , . . . a [ #.O.R U G G G G G G G G G G G G G G G D G G ",
"h J G G D R ..| R U U U U R #.&.%.} l w 0 0 , w , , , , , , , , , o o , , o . X J | #...R G G G G G G G G G G G G G G D G G G G ",
"D G D D R ..O.R R U U U G G [ #.#.Q 0 - - , , , , , , , - , , , , . - , , o . $ T O.#.| R U G G G G G G G G G G G G D G D G G G ",
"h G D R ..#.| R U U U U G G U [ ) f , 0 0 , - , , , , , , , , - - . - , , . . 9 [ O.#.| R G G G G G G G G G G G G G G G G G G D ",
"9 G U { ....| R U U U U D G U U R g < < < : , , - 0 o o - 0 , , o X o , o o . s '  .O.[ U G G G G G G G G G G G G G G G G G D D ",
"h U R T P ( [ R U U U U D G U R [ g , < : : , , o w - w - o , - o o - , o X O f A C ) R G G G G G G G G G G G G G G G G G D D D ",
"I R J 8 8 h R [ U U U D D G U R [ E 7 < , - , : w o , , - - - - o o O - o 3 f l v 0 f T U G G G G G G G G G G G G G D G D = = D ",
"~ P d 7 < 8 F [ R U G D D G U U R [ g 7 , , , , - , , - 0 o 0 . . o o O 3 K l w 0 0 q Y [ U G D G G G G G G G D G D = = & = D U ",
"k r < < : : > I | U D G D U U U U [ Y q , , , , , - , , , , o o . X X u Y | ~ r q r r ) O.[ U D D D D D D D D D = = = = D G U R ",
"t e , , : : - u [ | U U D G U U G [ { s , , , , , , , , , , o X X O a U [ X.| ) I Y / +.%.O.[ U D = = = = = = = = = = = G R | R ",
"0 , , , : : - 2 T | R U D U U U D Y O.Y 4 , , : - , - , - o O O u G T U U R R U U U [ #.&.&.#.| U D D = D = = = = = = G R | R s ",
"< , , , , : - ; J ..| R D G U G = Y O.| i - - , , , , , o O * J T ( R G D D D D D D P | %.&.%.#.| R D D = D D = = = G ( | ( h w ",
", , , , , - - , i } +.[ G G G G = R O.#.Y 3 o - ; - - o X a R | [ R G D D = = = D D D P | %.%.O.O.| R D = = = = = G ( | | L 0 w ",
", , , , , , - - - Y +.O.U D D G D [ O.+.| u . . o . X O = R | | R G D D D = = = = = = = [ O.O.[ U [ | R D = = = G R ..| U d w o ",
", < < , , , . - - F | #.| D = D R O.O.O.+.U % O O O * G U | [ R G D D G D = = = = D = D R | | U G U [ | R U R U [ ..| U > w - w ",
": , < < , : . - - p | $.#.[ [ | X.` C b L T P F G P R | O.[ U G D D D G D = = = = = = D R | [ G D G U | #.#.#.%.#.O.R i w w - o ",
", , , , , , - - X p | O.$.O.| { S b z e e t I ` [ | O.O.[ U G D D D = D D = = D = & & D R [ U G G D G R X.$.%.#.O.} r w o o w o ",
", : , , - - . - > 9 | O.O.O.O.W z e e e e 0 0 ' #.O...( U G D D = D D D D & = = = = D R | [ U P G G G G ( X.X.| [ T r - - w 0 0 ",
", - , , , - . - ; F [ $.#.| ..| k e e e e 0 , ' O.+.[ U U G = D D D = D = = = D = & G [ O.#.X.` ` ' [ [ [ X.O.` U R f w o 0 0 o ",
", , , , , o - . ; F O.#.| R R O.#.S e e 1 , , ' #.[ U G U D D = D = D = D = = = = & P R Z b m m b m b b c 0 w v Q [ r 0 o o 0 0 ",
", , , ; - . - O D R O.| R R U [ O.#.l 0 , > P O.[ U G G U G D = = D D D = & = D = D { W x c z e 1 e e e 1 < < e e _ E , : ; , , ",
", , , , O . o p R [ [ R R R U U ( O.#.| R U ..| R G D D U G D D = D = D = & = = & D [ E z z z e e e z 1 1 < < 1 1 E k < , < , , ",
", , , , o o D R [ O.[ R U U U U U [ ..$.$.$.$.[ G D D D G G D D D D = = = & = = & U R S c x z 1 1 1 1 e e < < e 1 E k , , , , , ",
", , ; - . p R [ | | R R U U U U U U [ O.$.%.%.| G = D D U G D = D = D D = @ = & G | T B x z z 1 1 1 z 1 1 < < e < L F ; , , - , ",
", , , o = R [ O.#.[ R U U U U U U U U [ #.&.&.| D D = D U G D D = D D = = & & D ` ..W m n z z 0 e e e e e < < 1 < L Y 9 ; , , , ",
"< , O p R [ ..#.| U R U U U R U U U U U [ $.&.O.G D D D U G G D D = D D & @ & G | | W M x z z 0 e 1 e 1 1 1 1 1 e L [ U 5 > , , ",
", > a T [ | O.| R R U U R U U U U U G U U [ $.#.U D D D U G G D D = = D & & @ U O.[ N M x 0 0 7 e e 1 e 1 < 1 z < L ..| Y 5 - ; ",
"4 a R [ #.#.O.[ R U R U U U R U U U U G U U O.$.[ D & D G G G D = D D = = @ = [ ..! z n n z z 0 e e z 1 < 1 1 1 < L ..#.| Y u > ",
"h R | #.%.#.| R U U U U R U U U U U U G G U [ ..| G & = G D G D D D D = & & D | | A z m m z z 1 7 1 1 1 1 1 0 7 < K | | | [ P F ",
"I [ $.&.%.| R U U U U U R R U U U U U G D U U R [ U = & & = G D D = = D & & G | [ g z c M z 1 1 z 1 z 1 1 7 e 0 , L G = D G G R ",
"P } %.&.#.[ U U U R R R U U U R U U U G D G U R R U G D = & D D D D D = & = R | ! v 0 x M x 1 0 0 1 1 1 1 1 e e < L D @ @ & = D ",
"* D O.%...R U U R R R U U U U U U U U G D G U U U G U U U = & D = = D = & G [ O.! z 0 z M x 0 0 0 0 1 1 1 0 e e < L D @ @ @ @ @ ",
"# @ G O.[ U U U R R R U U U U U U G U G D G U U U G U | [ G & = = = D = & U | #.^ t 0 0 c x 0 1 0 0 e e e < e e , L D @ @ @ + + ",
"@ @ D [ R U U U R R U R U U U U U U G G D D U U G D R #.$.[ D & & = = = = ( O.O.} l t 0 x z z 0 7 0 e e e < e e , K G @ @ @ + @ ",
"# p R [ U U U U R U U R R U U U U U U G D D G G D D [ #.+.| R D & = & & G | O.| { ) l w 0 z z 0 1 z e 1 0 0 e 0 4 I G @ @ @ + @ ",
"p R [ [ R U U R R U U U U U U U U G U G = D D D D G } ( k k ( R D = = = R ..[ G D U T l y t z 0 1 1 7 1 < < 0 , h Y D + @ + + @ ",
"Y | | | [ R U U R U U U U U U U U G G G = = D D U R P d > > h T U U U R | [ G = @ = G ( / L v 7 1 e e e 7 < 7 i Y [ G & @ @ @ @ ",
"' O.O.#.#...U G U U U U U U U U U G U D & = D G U U d , : - > 6 h R ..O.| U & @ @ @ = G { ( L t 0 e 7 1 7 7 i U [ | [ G D D G G ",
"} X. .o.#.#.X.U G G U U U U U U G G G D = D G R P d 4 : : - ; - 3 h | #.R = @ @ @ @ @ = U { } / g 7 < 7 4 i U R R R R R U U ` | ",
"_ ) S S ^ o.+.| U G G G U U U U G G G D D U R J r , : : : ; ; ; ; 2 ` | D & @ @ @ @ @ @ = P | | ( g 7 9 D R ` R U U U U U U R O.",
"b N z e v Z ^ { ( U D D U U U G D D D D G U P d > , , , , - ; ; ; 3 / R & @ @ @ @ @ + @ @ = U | O.( J P R | [ U U G U U U G U ..",
"0 e e e e z v B E Y J D D U G D D D G U P H d , , , , - - - ; ; > 9 Y D & @ @ + @ @ @ @ @ @ & U | | [ [ #.O.U U U U U U U G U | ",
"e 1 1 0 e e e z v r L F 9 D D D D G Y J d t < , , - , - : - - X 9 J G & @ @ @ @ + + + @ @ @ @ = U | O.#.$.| U G U U U U G G R ^ ",
"z 0 1 1 e e e < e , t t p D D D P R P d 7 < < , , , , - - ; - ; F G = @ @ @ @ @ @ + + + @ @ @ @ & U | $.O.R U U U U U P G G T V ",
"z e 1 < 1 1 1 < 7 < 1 1 7 s D U R P q w 0 < , , : , ; ; ; - 2 9 U D & @ @ @ @ @ @ @ +   + @ @ @ @ = U | | R U U U U U G G G E v ",
"z 1 < 1 1 1 1 < 1 , , < > H U R P q , < e , , , : , ; ; ; ; 9 U U D & @ @ @ + @ @ @ +   + + @ @ @ @ & U | [ U U U U G G G U V z ",
"z 1 e 1 e e < < < ; : > H ( [ U q , , , e < , , : , ; ; ; ; F R D = @ @ @ @ @ @ @ @ +     + + @ @ @ @ = U [ R U U U G D G V x 7 ",
"z 1 e 1 z 1 < < : - : H | #.#.R q , , , < , , , , : ; ; 2 9 R G & & @ @ @ @ @ @ @ @ @ + + + + + @ @ @ @ & G U G G G G G J N z z ",
"z 1 z 1 0 7 1 : - ; G | O.+.#.[ q ; , 0 0 , , , , , - - 9 U U 9 @ & & @ @ @ @ @ @ @ @ +   + + + @ @ @ @ @ @ G U G G U G g z 7 0 ",
"x 1 e 1 0 0 < ; O H | R G U | } P 5 , , 0 , , , , , , - F R G @ @ & & @ @ @ @ @ @ @ @ @ +   + + + + @ @ @ + D R R U U U W z 0 0 ",
"z 1 e e 7 1 : ; F ..[ D D D G O.[ q , < < , , , , : - 9 R G & @ @ = @ @ @ @ @ + @ @ @ @ +     @ +   + @ @ + D | [ G R W z e e e ",
"1 z 1 e < ; - F O.#.U D = = D G ( r , < , , - , , ; 9 U R D @ @ @ & @ @ @ @ @ @ @ @ @ @ +     + @ +   + @ + = | #...[ W z e 0 e "
};
