/* XPM */
static char *result[] = {
/* columns rows colors chars-per-pixel */
"64 64 242 2 ",
"   c black",
".  c #343434",
"X  c gray66",
"o  c gray72",
"O  c gainsboro",
"+  c #D8D8D8",
"@  c #D0D0D0",
"#  c #CBCBCB",
"$  c #C0C0C0",
"%  c gray74",
"&  c #B4B4B4",
"*  c #B1B1B1",
"=  c #A4A4A4",
"-  c #989898",
";  c #959595",
":  c gray55",
">  c #888888",
",  c #797979",
"<  c gray44",
"1  c #6D6D6D",
"2  c #606060",
"3  c #515151",
"4  c #4B4B4B",
"5  c gray33",
"6  c gray25",
"7  c #393939",
"8  c gray79",
"9  c #F3F3F3",
"0  c #F4F4F4",
"q  c #EAEAEA",
"w  c gray92",
"e  c #E7E7E7",
"r  c gray86",
"t  c gray81",
"y  c gray75",
"u  c #BCBCBC",
"i  c gray70",
"p  c gray69",
"a  c gray64",
"s  c #8E8E8E",
"d  c gray52",
"f  c gray53",
"g  c #464646",
"h  c #3F3F3F",
"j  c gray22",
"k  c gray20",
"l  c #202020",
"z  c gray27",
"x  c gray89",
"c  c #F9F9F9",
"v  c gray99",
"b  c #F6F6F6",
"n  c #ECECEC",
"m  c #EFEFEF",
"M  c gray98",
"N  c gray94",
"B  c #A2A2A2",
"V  c #979797",
"C  c #7C7C7C",
"Z  c #6F6F6F",
"A  c gray30",
"S  c #3E3E3E",
"D  c #232323",
"F  c gray82",
"G  c gray93",
"H  c gray95",
"J  c #FBFBFB",
"K  c gray97",
"L  c #C3C3C3",
"P  c #B7B7B7",
"I  c #B2B2B2",
"U  c #AAAAAA",
"Y  c #A5A5A5",
"T  c #8B8B8B",
"R  c gray50",
"E  c #676767",
"W  c #656565",
"Q  c gray38",
"!  c #585858",
"~  c gray23",
"^  c #353535",
"/  c #2A2A2A",
"(  c gray17",
")  c gray12",
"_  c #DDDDDD",
"`  c #F8F8F8",
"'  c #EEEEEE",
"]  c #E6E6E6",
"[  c LightGray",
"{  c gray73",
"}  c gray76",
"|  c #646464",
" . c gray32",
".. c gray18",
"X. c gray13",
"o. c #2C2C2C",
"O. c #222222",
"+. c gray80",
"@. c #DADADA",
"#. c gray84",
"$. c #CDCDCD",
"%. c #C8C8C8",
"&. c gray",
"*. c #AFAFAF",
"=. c gray63",
"-. c #939393",
";. c #868686",
":. c #484848",
">. c #3C3C3C",
",. c #323232",
"<. c #313131",
"1. c #0C0C0C",
"2. c #C6C6C6",
"3. c gray96",
"4. c gray31",
"5. c gray21",
"6. c gray14",
"7. c #070707",
"8. c #0E0E0E",
"9. c #5B5B5B",
"0. c #F1F1F1",
"q. c #DFDFDF",
"w. c #9D9D9D",
"e. c gray56",
"r. c #838383",
"t. c #767676",
"y. c DimGray",
"u. c #5A5A5A",
"i. c #434343",
"p. c #373737",
"a. c #1B1B1B",
"s. c gray4",
"d. c gray3",
"f. c gray36",
"g. c #C5C5C5",
"h. c gray85",
"j. c gray65",
"k. c gray24",
"l. c gray16",
"z. c #060606",
"x. c #101010",
"c. c #565656",
"v. c #ACACAC",
"b. c #6A6A6A",
"n. c gray35",
"m. c #6C6C6C",
"M. c #5D5D5D",
"N. c #555555",
"B. c gray58",
"V. c #2F2F2F",
"C. c #D2D2D2",
"Z. c gray59",
"A. c gray60",
"S. c gray61",
"D. c #AEAEAE",
"F. c #9B9B9B",
"G. c #909090",
"H. c #4C4C4C",
"J. c gray37",
"K. c #CACACA",
"L. c #B6B6B6",
"P. c gray51",
"I. c gray48",
"U. c gray43",
"Y. c gray40",
"T. c gray26",
"R. c #1D1D1D",
"E. c #191919",
"W. c #BBBBBB",
"Q. c gray78",
"!. c gray71",
"~. c #929292",
"^. c #808080",
"/. c #717171",
"(. c gray5",
"). c gray10",
"_. c gray49",
"`. c #898989",
"'. c gray15",
"]. c #131313",
"[. c #3A3A3A",
"{. c #C1C1C1",
"}. c #7E7E7E",
"|. c #494949",
" X c gray28",
".X c #252525",
"XX c #272727",
"oX c gray87",
"OX c gray46",
"+X c gray45",
"@X c #D5D5D5",
"#X c #CECECE",
"$X c #2D2D2D",
"%X c #181818",
"&X c gray6",
"*X c #E4E4E4",
"=X c gray83",
"-X c #A0A0A0",
";X c gray67",
":X c #E2E2E2",
">X c #D7D7D7",
",X c gray57",
"<X c #848484",
"1X c #5F5F5F",
"2X c #505050",
"3X c #B9B9B9",
"4X c gray68",
"5X c #4E4E4E",
"6X c #444444",
"7X c gray19",
"8X c gray88",
"9X c #9F9F9F",
"0X c #777777",
"qX c gray42",
"wX c #282828",
"eX c #161616",
"rX c #040404",
"tX c gray1",
"yX c gray47",
"uX c gray77",
"iX c #E9E9E9",
"pX c #818181",
"aX c #535353",
"sX c #747474",
"dX c gray54",
"fX c gray90",
"gX c #727272",
"hX c #686868",
"jX c gray29",
"kX c #414141",
"lX c #E1E1E1",
"zX c #7B7B7B",
"xX c gray39",
"cX c #1E1E1E",
"vX c gray34",
"bX c gray7",
"nX c #0B0B0B",
"mX c #111111",
"MX c #151515",
"NX c gray9",
"BX c #626262",
"VX c gray91",
/* pixels */
"                                  . X o O + @ @ # $ $ % & * X = - ; : > , < 1 2 3 4 5 6                                         ",
"                              7 8 9 0 q w e r r + t t # y u i p a s d * f , 1 2 3 g h j k l                                     ",
"                            z x c v v b n n m M c N r + # $ u & p B V V > C Z A 3 g S j k D l                                   ",
"                          h F G H v v J M M K q O @ L $ P I U Y - T R C < E W Q ! ~ S ^ / D ( )                                 ",
"                          g _ x G H v v ` ' ] [ F # $ { i } X = ; > C , 1 | Q  .z 6 ..( X.D o.O.                                ",
"                          h +._ e b 9 v K n w x @.#.$.%.&.&.I *.=.-.;., 1 Q 5 :.>.,.<.O.O./ o.O.                                ",
"                          1.! 2.#.K G 9 J 3.n m b ' @.#.8 y o U = ; > , 1 2 4.6 5./ 6.l D o.6.7.                                ",
"                            8.o.9.F n 0.v J ` b n q.t $ i * w.e.r.t.y.u.4.i.5.p.o.O.l l a.s.d.                                  ",
"                                8.f.g.$._ v v K e h.# u *.j.; > , 1 2 3 g k.k ..l.l O.X.z.                                      ",
"                                  x.c.v.t 0 v K e h.# % * = ; > , b.u.n.g S ^ / D O.O.s.                                        ",
"                                    ..= $.0.v K e h.# % * = ; > , m.M.N.g S ^ l.l D O.                                          ",
"                                    ..= @ ` v K e h.# % * =.B.; , 1 2 3 g >.<.V.l D O.                                          ",
"                                    ..= C.v v K e h.# % v.Z.A.S., 1 2 3 g k.k o.l D O.                                          ",
"                                    ..= C.v v K e h.# % D.F.- G., 1 M.H. .S ^ l.l D O.                                          ",
"                                    ..= C.v v K e h.# % * = ; > , 1 J. .9.S ^ l.l D O.                                          ",
"                                    ..= t 0 0.e h.K.% *.B ; ;., m.J. .H.A k / 6.l D O.                                          ",
"                                    ..S.* +.+.$ L.= S.s P.I.U.Y.! 4 T.~ ^ 6.l l l X.R.                                          ",
"                                    E.U.W.$.Q.K.# &.!.j.F.~.> ^./.W u.A h k.<.l.X.X.(.                                          ",
"                                    )._.] K G b ` q r +.$ I = V `.C U.J. .c.k.V.'.D ].                                          ",
"                                    [.%.] v v M ' h.$.{.* = -.d }.1 2 3 |. X^ ( .X.XXX                                          ",
"                                    5.W.oXv v K e #.# @ * = ~.P.}.< 2 3 g S ^ l.l D O.                                          ",
"                                    ..= C.v v K e C.Q.O * = ; ;.OX+X2 3 g k.k o.l D O.                                          ",
"                                    ..= C.v v K e @X#X#.* = ; > , m.M.N.g >.<.$X%XD O.                                          ",
"                                    ..= C.v v K e h.t g.* = ; > , b.u.n.z ~ j D &XD O.                                          ",
"                                    ..B #Xv v K *X=X=X% * = ; > , 1 2 3 T.5.S l.l D O.                                          ",
"                                    ..-X8 v v K q.+.*X% * = B.f _.1 2 3 g k.5.l.l D O.                                          ",
"                                    ..;X:Xv v K e >X8 {.* = ,X<X`.1 1X2Xg ~ [.l.l D O.                                          ",
"                                    ..= C.v v K e C.{.$.* a B.`., 1 M.H.A k.. ( l D O.                                          ",
"                                    $X-X$.` c 9 *X@X%.3X4Xw.: : OXy.f.5X6X7 $X7Xl O.l                                           ",
"                                    O.I.X @.8XF g.P ;X9X,Xd 0XqXJ.2Xz k.. wX) R.R.R.eX                                          ",
"                                    rX7XT = U S.B.e.P.^.0X+Xb.W c.4 T.7 $X6.a.rXtXrXtX                                          ",
"                                    k i _ v v v J q 8 >XK.u *.B B.f yXm.1X2Xi.^ ( ../                                           ",
"                                    ..= C.v v K e 8Xq.% * = ; > , 1 2 3 g S ^ l.l D O.                                          ",
"                                    ..= C.v v K e h.+.% * -Xe.G.t.b./.3 g ~ <.7Xd.D O.                                          ",
"                                    ..= C.v v K e F uXr * a ; > , 1 Q 4.T.6X^ l.) D O.                                          ",
"                                    ..= C.v 9 e H + # y * = ; > , 1 M.4 5XS ,.D wXD O.                                          ",
"                                    ..= C.` 0.3.iXF { { v.;X,XpXr.1 2 aX4.S ^ wXX.l E.                                          ",
"                                    ..= C.J M K _ K.*Xu p Y B.f I.1 2 3 z ~ [.l.l O.l                                           ",
"                                    ..= C.v v K G iXF % * = ; d sXsX2 3 g k.5.l.l D O.                                          ",
"                                    ..= C.v 0 iXH _ # % * =.G.s yXZ 2 4.i.6 7X7Xl D O.                                          ",
"                                    ..= C.v M 9 q h.8 y Q.a B.dX, b.u.u.z h . ( l D O.                                          ",
"                                    ..= C.v v K fX+ @.% o = ; d OXgXJ.5 g >.<.7Xl D O.                                          ",
"                                    wXZ.t 0 c m ] + F % D.F.; f 0XZ J.A H.k.k o.l .XwX                                          ",
"                                    1.3 u _ q.#X$.g.3Xv.V <XG.OXhXu.A T.k.7XXXD l R.8.                                          ",
"                                    X.: #X{.K.Q.3Xa Z.> OX| gX| c.jXkXj $XD l l l R.x.                                          ",
"                                    7Xp O q.8Xq lXC.L & j.V e._.zXZ xX! 4 S 5.( O.XXcX                                          ",
"                                    ..j.>XM K c N fX>X%.u D.F.> G.yXb.f.3 6X7 5.X.XXO.                                          ",
"                                    ..= C.v v 9 lXfX# o 4X3X-.;.P.1 2 3 g k.k 7Xl D O.                                          ",
"                                    ..= C.v v 0 :Xx # 3XD.!.~.d <X1 J.5X4 S ^ l.l D O.                                          ",
"                                    ..= C.v v K e h.# % * = -.;.r.qXu.5 jXS ^ l.l D O.                                          ",
"                                    ..= C.v v K e h.# 3XU v.; > 0XhX2 vXg S ^ l.l D O.                                          ",
"                                    ..= C.v v K e h.8 L.L.4X; > 0Xb.W 2Xg z ^ l.l D O.                                          ",
"                                    ..= @ K v 0 x :XQ.3X} = ; > , 1 2 2Xz  X^ l.l D O.                                          ",
"                                    ..= $.0.v m _ m # % * = ; > , 1 1X4.|.S ^ l.l D O.                                          ",
"                                  ].Q !.t 3.v H 8Xe # % *.B S.> , 1 J.A H.S ^ ( '.O.O.1.                                        ",
"                                bX| #X_ q.v v K e h.# % D.=.a > , 1 2 3 g k.k <.V.l O.O.8.nX                                    ",
"                            mXp.| =XG 0 v J K 3.G 8X@ g.o v.9X,Xd yXqXf.3 g j j $XD l O.l..X(.8.].MXeX%XE.).a.R.NX              ",
"                          x.Q Q.+ K 0.v J 0 n ' 0 n h.@X8 y o U = ; > , 1 2 2X6 p.( .Xl D o.o.7Xh z 4 3  .! 9.2 5 ).MX          ",
"                          h $._ e b 9 v K n q :Xh.#.+.%.% { * 4X-XV d , 1 Q 5 :.k.k <.O.O./ o.V.j 7 6 z  XH.3 5 f.BX5 bX        ",
"                          g _ x G 9 v v ` m VX@XC.# $ % & * X =.B.- C , 1 | Q N.:.i.<.o.O.D o.V.j j j [.T.:.|.5Xc.f.J.3         ",
"                          [.%.G 9 v v J c c b w oXC.g.{.o i ;Xj.A.: pX}./.hXb.1 M.4 |.5.( D o.7Xj j 7 ~ i.|.jX4.vXf.9.6X        ",
"                            6 + b v J b n w ' ` K ' @.>XK.y &.& *.B - -.f _.0Xb.N. X3 j k .X<.7 7 >.kXi.|.A 2XvXu.3 g           ",
"                              5.u e m ] q ] r r >X#X#XK.u { g.*.a - B.> R r.1 BXvXg S 7 j ^ i.i.z 4 4 H.2XvX9.5 :.              ",
"                                  7XF.U # %.uX$.8 &.&.3X* D.j.B V B.dX;.yX< m.1X2Xg kXi.H.vX9.N.vXf.f.f.f.f.jX                  "
};