/* XPM */
static char *result[] = {
/* columns rows colors chars-per-pixel */
"64 64 113 2 ",
"   c #3E0505",
".  c #3E0909",
"X  c #2C1616",
"o  c #2C1C1C",
"O  c #321E1E",
"+  c #3A1E1E",
"@  c #252020",
"#  c #2C2323",
"$  c #2F2B2B",
"%  c #332323",
"&  c #3A2626",
"*  c #322B2B",
"=  c #3B2929",
"-  c #353434",
";  c #3A3636",
":  c #3A3939",
">  c #450505",
",  c #4D0303",
"<  c #450909",
"1  c #4C0909",
"2  c #530303",
"3  c #5B0202",
"4  c #540909",
"5  c #5B0A0A",
"6  c #421B1B",
"7  c #4A1D1D",
"8  c #630101",
"9  c #6C0000",
"0  c #630A0A",
"q  c #6A0B0B",
"w  c #740000",
"e  c #7C0000",
"r  c #740C0C",
"t  c #7E0E0E",
"y  c #6D1D1D",
"u  c #731C1C",
"i  c #422121",
"p  c #4E2525",
"a  c #422B2B",
"s  c #4D2A2A",
"d  c #532626",
"f  c #5A2727",
"g  c #542B2B",
"h  c #5B2D2D",
"j  c #453232",
"k  c #4C3434",
"l  c #423C3C",
"z  c #4C3B3B",
"x  c #553333",
"c  c #5C3333",
"v  c #553C3C",
"b  c #5E3939",
"n  c #632E2E",
"m  c #772323",
"M  c #623434",
"N  c #633A3A",
"B  c #6A3C3C",
"V  c #4D4C3C",
"C  c #434343",
"Z  c #4C4545",
"A  c #4B4B4B",
"S  c #504646",
"D  c #524C4C",
"F  c #594F4F",
"G  c #535353",
"H  c #595555",
"J  c #5D5D5D",
"K  c #674141",
"L  c #6B4141",
"P  c #6E4848",
"I  c #615E5E",
"U  c #656161",
"Y  c #830000",
"T  c #8C0000",
"R  c #800C0C",
"E  c #8C0E0E",
"W  c #940000",
"Q  c #9B0000",
"!  c #940D0D",
"~  c #9B0E0E",
"^  c #841111",
"/  c #8C1111",
"(  c #831E1E",
")  c #8A1A1A",
"_  c #951111",
"`  c #9C1212",
"'  c #911A1A",
"]  c #9B1919",
"[  c #A30000",
"{  c #AB0000",
"}  c #A40E0E",
"|  c #AB0D0D",
" . c #B30101",
".. c #BA0101",
"X. c #B20E0E",
"o. c #BB0E0E",
"O. c #A31212",
"+. c #AB1313",
"@. c #A31A1A",
"#. c #AB1A1A",
"$. c #B31212",
"%. c #B91313",
"&. c #B41C1C",
"*. c #822222",
"=. c #9E2626",
"-. c #AA2121",
";. c #C50404",
":. c #CA0404",
">. c #C30D0D",
",. c #CD0E0E",
"<. c #D20202",
"1. c #DD0404",
"2. c #C31414",
/* pixels */
": : ; : ; : : ; : - : ; : : : - ; : : - ; : : ; : - : - - : : : : - : ; : : - : ; : ; : - : : - : : ; : : : : : : : : : ; - : : ",
"A l D Z Z Z Z Z F S Z Z Z C C G S l Z Z Z Z Z Z Z F F H F F F Z Z Z Z Z Z C C A D H F F F F H A Z Z Z l j : l Z D F A Z Z Z Z : ",
": >.1.:.;.:.;.;.:.;.;.;.} x A G 2.1.:.;.;.:.;.;.;.:.;.:.;.,.;.:.;.:.:.;.[ c : A &.1.1.1.1.<.<.1.<.<.:.:.;.:.;.;...o.....X. .[ M ",
"C ,.<. . .;.[ [ ;.Q ..{ w & C D 2.:.Q  .Q { W  .W { [  .[  .W { W { ;.{ Y i C C +......... . ...W { Q { ....[ [ { T  .[  . .T 7 ",
"V o.{ T [ W Q Q T W W e 8 O C G %...Q T Q W e Q [ T W [ Q T T [ Y W Q Y 8 + : D #.{ [ T e W T T Y Q T T Q { T Q T Y Q e W T 8 6 ",
"V o.W W Q Y T [ W Y W 9 , % C D $.[ { [ W Q e Q T W e Q Y e Y W e T T w 3 & : A +.W Q e e W e T e W T W T Q Y W Q T W T W Y 3 + ",
"C | [ T T T T Q Y Y Q w > % C A O...Q [ T T T Q e T w W T e T T Y e T e 2 O : C ] T W Y T W w T Y w T [ T W T W Q T W e T T 3 + ",
"C | W W Q e T W w T e 9 > # C A O...T W w W e W e W w T T w e T w T T w 3 % - C ` Q W w Y W e Y w e e W T T w T T e T T T T 2 O ",
"C ~ W e T 8 9 w 3 8 w 8 , % - A ^ Q e w 3 e w w e w 3 9 e 9 w w 3 w 9 9 , O - C ' T w 8 9 w 8 w 8 9 8 w 9 9 3 w w 3 9 e w e 2 O ",
"C u q 5 5 < < < < < < >   # - A y q 5 5 1 4 4 4 4 4 1 4 1 < < <   < < < . % - C u q 5 5 5 5 5 5 5 5 5 5 , 1 , 4 4 , 4 5 < < > O ",
"C x a & & & * = * % % # o $ : C x j = = = = % O O O & & * % o # # % * = * * C A k a a = a a j a a = a = & % % O % % = = = * * * ",
"B M f d g c h c h g d p p g c x Z C C b M n n g d d h M M h d d h c h c c c N M b N N M N N L L B N M b x j ; : b n M M M M M n ",
"%.} ~ | ! _ ` _ _ ! ! E ! ! ` t v A A -.$.| +.} | ~ O.O.` ` } } O.~ _ _ ! ` ` ! ! ` O._ O.] ] +.#.] O.} ^ x C C =.>.+.O.} +.O.| ",
" .[ Q { [ T [ T Q Q Q T { Q Q 8 = C A 2.{ { ..Q { Q Q  .Q Q { Q [ [ T W [ Q Q Q [ W [ W { [ W { ..[  .[ 9 i C C +.<.[ { [ [ [ { ",
"T Q W Q T Y W e W T T w Q Q T , % C A %.[ T Q T Q W Y Q Y T W Y Y Q T T T T e W [ T Y T W W T T [ T Q T 2 & C A @...W Q W T W Q ",
"Y Q Q W T e T e T T T w W T w , % - C $.W W W T W T e T e e T e w W T T w T e T Q w e e W T T e W W T w 2 O : A ] [ W Q Q T W W ",
"T W T Q T e Y T e Q T w Q T w , # ; A $.W T Q T W Y w T w w T e e W T e w W w T T 9 T e T T T e W T T e 2 O - C ] [ W Q T T W T ",
"e W w W w e e T w W e w W T w , % : A +.{ e W e T T w T 9 w Y q T W e w w W w T e 9 W w e T w w W Y T Y , X * C ' Q W W w T T Y ",
"8 T 9 w 3 w 9 e 9 e 9 8 Y w 9 > % C G O.Q w e 9 w Y w e 9 9 e 8 9 Y w w 9 e 9 w w 8 Y w 9 e 8 9 Y w e w , X - A ) W Y w 3 8 e w ",
"< 5 1 < < 1 1 4 1 4 1 < 4 < > . * C A *.r 0 5 5 5 0 5 5 5 5 5 5 5 5 5 5 4 4 4 4 5 4 4 4 4 3 1 1 5 5 5 < . o : C m r 4 4 < < 5 4 ",
"= = = % % = = % % o & = % o o # : C C v k a = & & & & = a a j j j = = a % O O O % % = = & % O O % = = * = - C A v s % & = * = = ",
"C N M f f c N g M g h c g g p d b b N N b b c g g g g g l C C b B h M M h d d g g h M c b h d p g c c c b b N M N b g h M b c z ",
"D &.o.| X.} $.| $.| } ` ~ ! ~ | ~ } O.} ! } } ! } } ! R x A D -.2.| X.X.X.| | | | | | } ` ! ~ ~ ! ! ~ ` ~ } ` ! ` ! ! ~ ` ! E x ",
"A ,. .{ ..Q  .W { W { Q { Q [ ..Q Q Q [ Q { [ Y [  .W 8 = C G 2.:.Q ..{ { Q [ { Q [ [ { T e Q W T T [ W W Q [ W Q Q T Q T W 9 + ",
"C >.{ W [ W Q e Y Y Q Q W W W [ T e W Y W W e e W T W 3 % C H &.;.Q [ Y W e T Y T W e W e Y Q e T Y T T W W Q e W Q T W Y w 2 O ",
"C } T W [ e T 9 T w W T W T W Q e e W Y T Q T 9 Y W e , % C J &...W W T W w T e T Q Y W Y T W w T e e T Q Y T T W [ T W w 9 2 O ",
"C } [ T Q 8 T 9 w e Q T e e Q T e w Y W w W T 9 T Y 9 , % A J &.Q T T T T w T T e W e Y w e W e T w e e W T W Y W T e W T w 2 O ",
"A } T 9 W 8 e w W w T 9 T w W T w e W T 9 T e e Y e W 3 o C D +.;.T T e W T W T e T w T w 9 w 8 T 9 T w T 9 Y Q T w 3 w e w 2 O ",
"C | [ w w 9 9 8 9 3 9 9 Y 9 e w 9 e w w 8 9 T w T w 9 , O - A #.{ e T e e 9 9 w 9 w 9 e w e 8 e 9 9 T 9 8 e 8 T w Y 8 e Y 9 2 O ",
"C _ W 9 3 0 8 0 8 3 8 0 8 3 8 0 8 2 , , , , , 1 , , >   % - D ) w 8 0 8 8 3 8 0 8 0 3 8 0 3 3 3 4 2 3 2 2 4 3 2 2 3 , 2 9 0 > O ",
"C A l * * * $ $ $ $ $ $ * $ $ * * $ $ $ - ; ; * $ $ $ $ $ C C A - $ $ $ $ * $ $ # @ @ @ o $ ; ; : * @ @ @ # $ $ $ $ $ $ $ $ $ $ ",
"A H G G G A Z : Z : : ; C G I U H H G A A Z C l : ; l : : l A A Z A G l A A D A C : : : : C D H A A C : l C Z A D C A A Z A D l ",
"....................[ b : D %.<.<.<.<.<.<.:.;. ................... ...........{ M D G @.1.<.<.<.<.<.<.<.<.<.;... ...............",
"[ { [ { [ .. .{ ;.{ 2 = A : X.{ w W Y W [ e W W Q [ e W T w W [ e W [ e W T Q 3 = C G #. .T W T W [ e W T T Y W T W W Q T W T W ",
"Q T T [ Q [ Y Q W w , # C A %.Y W T T Q T W W e Q W T e T Y Q T w W e Y Q e W 3 = A H #. .w T e W W w T W W T T T W e T T T T e ",
"T e W W T Q T T Q e , # C C X.e W Q T W Q e W e W T W 9 W 8 e T W T e T Q T W 3 = A I #. .T W Y W W W W Q Q T W e T T Q W T W e ",
"Q T e Q W [ W T T w , = C A %.Q e W Y Q T 8 T T T T e Y W w T T w Y W e T W T 2 = A J &.Q W Q T T e W Q T Y W T W T W W T e e Y ",
"W T e Q T W T T W e , = C A +.T T T 8 T Q w T T Q T W e Y 8 9 T w T W e W T W 3 & C G @.{ T Q W T W W T Y W T W T T T W T T W Y ",
"w 9 e T w 9 T w w 9 > * C C _ w T W 9 T T w T e T w T 9 w 9 e T 9 Y w Y W w w , % l D ] [ w T Y T W T W T T Y T e Y e T e T W e ",
"< < , 4 1 1 4 1 1 <   % C A ( 8 0 8 5 3 5 3 q 5 0 4 3 4 2 4 4 5 4 5 5 3 5 5 < > # C A ( r 5 0 5 0 q 0 0 0 0 0 3 5 3 0 5 5 3 5 1 ",
"* * = * = * % = * * % $ C A S a % O O % = = a j j = % # O o % = * & = = & % * % - C A v k = = = j j z k = = & % % = = = = = = * ",
"C N N h c f g c M g g g x b N g d s x c c c b N N b x g s s c c l C C x M h c h b M L B N g c c b L P L N c x g c b b c b x c l ",
": #.$.} } } ~ | | ! ~ ! ! ! ` ! ! ! ! ! ` ! ` _ ` _ ! ! ! ! ! ^ k A A ] o.X.} | } } O.O.O.~ _ ` ` ' ] ` _ ` ! ! ! ` ` ` ` ! E g ",
"Z o...W Q [ T [ { W Q [ T Q T T [ Y Q T Q Q [ Y Q T [ [ W T Q 9 a C A %...{ T Q T Q Y Q T Q Y Q W T T W T Q W W [ W W W T Q w & ",
"C o.{ w W T w T T W Y Q e Y 9 W W w W w e T T 9 W e T T T e T 2 % : A &.[ Q w e w Y 9 w w T w W e e Y T e T e T W T T T e T 3 O ",
"C X.[ w Q e w T w W e Q T T e W T Y T e w T T 9 T w T Y T T e , % ; C +.[ W e 9 w T e w e T w T T w e T e T Y W T T Y T e T 8 O ",
": o.{ e W T w T e T Y Q e W w T T w W w e T Y e W e T T W e Y 2 o - C +.{ Y Y T w T w e Y T w e w e e T e T T T W T e T Y T 3 O ",
"C o.{ e T W w T e W e Q e W w W T 8 W 9 w Y T e W w T T T e T 3 o - A +.{ e w T w Y 9 T e T w Y 9 Y w Y e T T e W T T T e Y 3 O ",
"C | Q 9 T w w e w T w T w e r T e 8 e 9 8 8 Y 8 e 9 e w Y 9 T 2 o : D @.T Y w e 9 e 9 w e e 8 e 9 e 9 e w e w e e e w e 9 w 2 O ",
"C ) q 5 0 5 5 5 5 0 0 5 4 5 4 5 5 < 1 , 1 < 5 1 4 1 4 1 5 1 1 < # : A *.q 0 5 5 5 0 5 4 0 5 4 5 5 4 1 4 1 5 4 4 4 4 1 5 4 4 < O ",
"C c a & a i a = = i = = j j j = % % % % = = % % o O O % = & % % * C C x s = = = = i & & & & a j j = % = & & & O o X O % = % = - ",
"M n B h M c M c b c c M L L B b M s z C Z N M f d d f M M M n f h b N c M b h c c b h h h c b S C A c M M M f d 6 6 p d h c M c ",
"` } ` } +._ ` _ ! _ ` ` @.' ` ` ` R v A A @.o.| | } ~ O.O.O.O.! ! _ _ _ ` ` _ ` ! _ ! _ _ / ^ x C A =.$.` O.} ~ ! T ! ! ! _ ` _ ",
"W [ Y [ [ T T T Q T  .W Q Y Q T Q 8 & C A %. .{ [ { T Q e W Q Q T Q Y Q [ Q T W T W e W T T 8 a C G #. .W T Q T Q T W W Q T W T ",
"W T 9 W W T e Y T e W 9 e w e e T , # C A $.Q W T Q w w 8 e T T T W e e W e e Y w e 9 T w Y 3 % l D -.W T e T T W T Y T e T T 9 ",
"W T 8 Y T w T w e T T 8 T Y 9 T Y , O C C | W e w W w w 9 W w T 9 T W e T w T e Y w w T w w 2 O C A @.W T w w T W T e T e w w e ",
"T T 8 T w w T w W T W 9 e w w W w , # C C | Q 9 w W w T 9 T e T 9 T e e Y 9 T w T T 8 w Y 9 , O l A #.[ Y 9 T T Y e T e Y e 9 T ",
"9 Q e W w T e e Q w T e 9 e W Y T , % l C $.w T W e T T w Y 9 w 8 T w T e w T w e e 8 e e 9 2 O : A @.T T Y W e T T Y w 9 e Y T ",
"8 Q e T 9 T T w T w e 9 T w T e T 2 % C A $.w T e W w e w Y 3 T 9 e 8 T T 9 T T w T 9 T 9 w 2 O : C +.T T w w 9 T Y T e 8 9 T w ",
"w T 8 T 9 8 Y 8 w w T 8 T 9 9 e e , # C A +.Q 8 8 T 9 T 8 w 8 T w T w 9 T 9 w T w w w e 9 w 2 O : C ] e 8 3 e 9 Y e T e T 9 T e ",
", , , 4 , 1 , , , , , 1 4 , , , >   # : A ) 3   < < > , < , , 4 , , , , , , , 4 > > , < , <   o : A *.0 > < , , , , , 1 , , , , ",
"$ * $ * $ $ $ * * $ $ $ $ * $ * $ $ $ C A D l - = * $ * $ $ * * * * $ $ $ $ * @ @ o o @ # @ @ @ - C Z - $ $ * $ * # @ @ @ @ $ $ ",
": D : A : : : C A A A A D G : C A A A G H G G G A A A A A A A D A A : C A A C : : C : : C C C : : A A Z : A A A A A C : : C C A ",
"G G G H G G G G G G G G G G G H G G G G G G G G G G H G G G G G G G G G G G G G G G G G G G G H H G G H G G G G G G G G H G G H "
};
