/* XPM */
static char *result[] = {
/* columns rows colors chars-per-pixel */
"64 64 35 1 ",
"  c #342711",
". c #372912",
"X c #3C2B14",
"o c #3F3016",
"O c #3F301A",
"+ c #412F16",
"@ c #433016",
"# c #413018",
"$ c #4A3619",
"% c #47381B",
"& c #4A3919",
"* c #533C1C",
"= c #593F1E",
"- c #4E3F22",
"; c #543E21",
": c #593F22",
"> c #5A401F",
", c #4E4023",
"< c #534225",
"1 c #5D4120",
"2 c #544528",
"3 c #5C4628",
"4 c #644522",
"5 c #694724",
"6 c #6D4925",
"7 c #6A4A29",
"8 c #724B27",
"9 c #744C28",
"0 c #794F2A",
"q c #7C512C",
"w c #82552F",
"e c #865730",
"r c #885731",
"t c #845834",
"y c #895831",
/* pixels */
"O+##++####@###+#@@@@@@@@@@@@@@@@@@@@o@@o+########+##@@o@##o#O@##",
"7656666656566656565566665665566655665665665656666665666566666566",
"tryyrrrrrrrryeyywewweyyeyeyeeeeeyeyeryyyrrreryeyyyyyyyyyrrrrryry",
"3=>1=4>@>.@1====>>>>>>>>>&>.@>>>>$>Xo>>>===$=XX=====>>>>>1&>XX=>",
"2&48886*w $w4&&&,45>>,>@&&w.&q9>5=wX$q4*&*=*qX$q>4>&4*5&46=q@@q9",
",&49884*e *r6&&&>68>4>4>&>eX&e0&5>wX&w04$=6=wX$w>6*%5*5*50>w@%w9",
"-&>898=*y *e9=&&>56@4>>>@&w.$e8>6=wX&w06468=w+$w>6*&5*5*50>w+$q0",
"<$*498=*y &r0=&&>85>>>>>&>e.&e8&6=wX$wq9889=w+$w>4&&5,5*58>q@$q9",
"7&&=54&*y $y04$*585&4&4>$*y.&e8&6=wX$e08999=w+@w>5,&5*5*48>w+%w4",
"7&*&>=&*y *r06&=694>4&4&$*e.&e5&6=wX&e00990=w+$w>5&&5*5*181w@$w4",
"0*&&*&$*y &r084588>&4&4&$&w+$y4&6=yX$w09088=w+$w>5&&5>6*>61q+$04",
"71&$&&=*y *r085888>&5>4>$*y.$y>&6=wX$w09880=wX$w>5>%5&4==6>w+$w1",
"77&&$*5*r *y096898>&4&4&$*e.$e==8=eX$w98808=w+$w>5,&5*5=&5=w+$w=",
"49:&&=8=y $y088996>&4>4&$&y.$e*>8=wX$e88886=w+$w>5&&5*5>&5=w+$w>",
"196=&56=y $r099986&&4>4>$*e.$e>48=yX$w58085=wX$w>4>&5*5=&6=w+$q1",
";695=84=y *r899984&&4&4&$*e+$e488=wX$e>4864*w+$w>4>@5*54&5=w+%w4",
"<59948:=y *y680884&$4&5>&&y+$e686>e.&w>>4>**w+$w>5>&4>44>>>w@o04",
"<46969**y $y488884$$5&4&$*e.&e985>e+$w>&>&$*w+$w>4,&4>44>4>q@>w4",
",16906&*y *y46808=$$1&4>$&y.&ew84>e.$w>@&&$&w+$w>5>o4>55>>>q@&w6",
"-*4884&*w *e>6888=$*4>1&$*e.&e86>&e.&w>$$$$$w+$w>>>&4>58>>>0@&w9",
",&>99=&*y *e>5994&@>5&1>$&y+&e05**w+&e>$&$&>w+@w>4,@4>56&>>w@&w8",
"-$=66*&*y *e>1694>&&5>1&$*e.&e9>&*w+&w4*&&>*w+@e>6,&>>58>>&w@@w0",
"<&*>=&&*y &e&>694>&>4&4>$&e.&y6>$*w+&e8>&>4>w+$w>5>&4>>8>$>0@$q8",
"3&&&&$**y *e**55>&&>4>>,$*e+&e4&$*w.&e05446>w+$w>4,&5>>8>&&w@&w8",
"3&&&$&**y &y>&>>>&@>>&>&&>w &e>$$*w+$ww6688>e@$w>4>&4>>6>&*w@$w4",
"7&&&&&4*y &y&&>&@&,4>,4>&&w.&w>$$&w.$ww8999>w@$e>4,@5*>64&&w@$w4",
"6&&%$&4=y.*y,&&&&&&>>@>&@>e.$w>&&*y+$w88998>w+@w>4,&5>&54&*w@$w>",
"4*$%&*>*y.&y,o&&@&>6>&4>&>y.$w>@**e+$ww8999>w+$w>5>$5&>55>*w@$w>",
"<*&&&***y *y*$&&,@>8>,4>&>e.&e>$=*w+$w98989>w+&w>5>@5>&66>*w@$w>",
"=5&&&4=*y $y*$&&@,>8>@>&&&e.&e*$4*w.$w98999>w+&w>5>,6&$594&0@$w>",
"*5=&&4&*y $y*$&@,@>8,,>,@>w.&y**5=w+$w56996>w+&0>4&@5>$594*w@$0>",
"%1*%4>&*y *y>&&&@,48&@4>,&w.&y>>8=w+*w55896>w.&w>>>,6&$486>w@$w>",
"&*4*4&&&y *y4&&&&&86&&4&$*w $y>58=w+@w=4884>w.$w>5&&5>>>68>w@&w>",
"&*5>5>&>y $y6*&&$>86&>4>@*w+$w568=w+$w*=88>&w+$w>4>&4>@>68>w@&q>",
"&&>4>&&>y &y0>&&&484&>5&$*w+$y888=y+$e=$4>&>w+$w>4&&4>o>69>w@&w4",
"&&>>>&@>y *y06>&*68>&>4&$*w+$y8w8=e+$e*$>&$&w+$w>4>&4>&,68>w@@w4",
"&&&&&$@&y *y094&>88>&>5>$*y.$yw86*w+&e*$$&&&w+$w>4>o4>o>69>0@&05",
"&&&&$&&>y $y098>688&&46&$&w+$w886>e.$e>$&$&&w+$w>5>@5>,>59>w@$w8",
"%&&&$&**y *y9998898&&45&$*e.$yw84*e+$w>$$$$$w+$w>5>&54>,48>w@$w9",
",@&&$$**y $y8999088&$66$$*e+$w86>*e.&w4&&$$$w+$w>5>@55>o48>w@$w8",
">&&&&&>*y &y6899884$$55>&&e+$ew5**e+$w6*&$$&w+@w>5,&46>&>6>w@$w4",
"4,&&&&>*y *y489980>&&5>&$*e.&e94&*e.$w8>*$**w+$w>5&&16*$>6>w@$w>",
"5>&$&*4*y &y>68988*$&6>&$&e+&e8>$*e+$ww4*=4*w+$w>5&&>6>&*4>w@$w>",
"5>*&*>5=y *y>48906&$>5>&$*e.&e6*$*e.$w86>>5=w+$w>5>&>6>$&4>w@$w>",
"45=**41*y >e>>886>&&>6&&$*e.&e4&$&e+@e98458>e@$w>5>&*5>$*>*w@$0>",
"=6>=16=*y &w&>465>&&46>&$*e.&e>&&&w.$ww9668>w+$w>4>@*64*$**w@$w>",
"*65=46**y >w>&>>4&&&58&$$&e.&e*$**e+&ww8889>w+@w>4>o*54>&**w@$w>",
"$66466**w &w>@$>>&&&56&&$*e+$e>&**w@$e98998>w+$w>>,,&55>$**q@$w>",
"&58686&*y *y=&$&&@,>44>o,>0.&e*&=*w+&e98986>w.$w>5>&@46>>>>0@&0>",
"$>8986&*y &y1$&&,@@>8>@,o>w.&e**5*w.$y98986*w+$w>4>&>>64>o>q@&q>",
"%*6895&*y *y4&&$@,>48>>@,>wX&e>>6=w+&e88994>e+$w>4>o&>84>,&q@&w>",
"%*5891&*y &y6*&&,@&48>@,o>wX$w458>w+$e6698>*w+$w>4>@>>66>o>8@&w4",
"%&>661&*y.*y9>&&@,>45&&&,&e.>w868=y+$e4698>*w@$w>4,o@>56>&&w@&q4",
"%$*66>$*y.&y94&&,@>45&&>@>e.&w098=w+&w4486>*w.$w>5>,@>464>>q@@w5",
"%&*41=%*y &y86*&&&46>>&>,&w.$e098=w+$e>584**w+$w>5>,,>>55>>w+&w5",
"%&&1>&&*y &y88>&&>56>@&4&>w.&e088*w+$e>=4*&&w+$w>4>>o,>>6>&w+&w8",
"%&&&*&$*y *y466=>>58>&&4$*w.$ew98=w.$w=$>&@&0X$w>4>@@,>>84*w@$w8",
"&&&&&&&*y $y*585>665&&&4**e.$e98w=w+$w=$>&&>w@$w>>>>&@&>65*w@$w0",
"<&&&&&**y $y*=68888>&@,4**e+$e885*y+$e=$&&&&w.&w>44>&&&>66>w@@w0",
"1&$&&$4=y *y*$68985&&&>5$*w+$ew85*e+$e*$&&&&w@&w>>4>&&&&46=w@$w0",
"3*&$&*5=y &y*&*586>&$$58**w.$yw8>*e.$e*$&&&>w+&w>>4>&&&&==*w@$w0",
"6=&&$*5*y *y*&&>5>>&$$59**e.$e854*e+$e>$@&&&w+$w>,4>&&&&$**w@$ww",
"71&&&*5=y *y&&&&>&$$$499>*e+$e8>&*e.&w>$&&$*w+&w>&54&&&&&$&w@@00",
";>>====*y &e4&$&&@&$>>>>=*e.&y4$$*w+&w4&&$>&w+&w4>>>&&&@$$*w@$w5"
};
