/* XPM */
static char *result[] = {
/* columns rows colors chars-per-pixel */
"64 64 78 1 ",
"  c #050505",
". c #03030E",
"X c #0A0A0A",
"o c #040413",
"O c #080816",
"+ c #04041C",
"@ c #08081C",
"# c #121212",
"$ c #1B1B1C",
"% c #020224",
"& c #080824",
"* c #01012A",
"= c #08082B",
"- c #161625",
"; c #1C1C23",
": c #16162D",
"> c #1C1C2B",
", c #000035",
"< c #080833",
"1 c #00003A",
"2 c #141433",
"3 c #1C1C32",
"4 c #11113C",
"5 c #1A1A3C",
"6 c #212121",
"7 c #2C2C2C",
"8 c #31313F",
"9 c gray22",
"0 c #000044",
"q c #0E0E42",
"w c #00004C",
"e c #0F0F4E",
"r c #171744",
"t c #191941",
"y c #17174A",
"u c #000054",
"i c #080851",
"p c #00005C",
"a c #08085E",
"s c #111154",
"d c #11115C",
"f c #292947",
"g c #2C2C4B",
"h c #313149",
"j c #000064",
"k c #0C0C64",
"l c #00006C",
"z c #0A0A6E",
"x c #10106B",
"c c #000073",
"v c #0A0A74",
"b c #01017B",
"n c #09097C",
"m c #535355",
"M c #000084",
"N c #080885",
"B c #00008B",
"V c #08088B",
"C c #010193",
"Z c #080893",
"A c #00009C",
"S c #0E0E9B",
"D c #141496",
"F c #0000A4",
"G c #0C0CA0",
"H c #0000AC",
"J c #100FA0",
"K c #1212A7",
"L c #0000B3",
"P c #0000BA",
"I c #1212B6",
"U c #0000C3",
"Y c #0000CB",
"T c #0000D4",
"R c #0B0BD3",
"E c #0000D9",
"W c #0909D8",
"Q c #1A1AE7",
/* pixels */
"fcbbbbbbbbbbbbbbbbbbbk9gMBBMBBMBMBBBBBBBBBBBBBBBMBMN98cbbMbbbbl7",
"rFFFAFFFFFFFFFFFAFFFAN6tPPPPPPPPPLLPLPLLPPPLPLPPPPLF63HHHHHLLHG6",
"*FFACABFACBCCMCCMAbccwX5PHPFBFLCcbCBFFBbBFLABCFLLFCj >LLFAFHHCcX",
"*ACMBAACMMAACcCBbbbclw 5HFCBMMcbujupcCBpjljljpcMbjjp 3LHFFBAFApX",
",ABCBULBbbMCBMMljccppw ;****%%%*+%++**%++%+.o.ooooo. 3LHLLLFAbl#",
"*AMBHUHbMMBFACBblclpu1 5BBBCBBBBCBBCBBCBCBb$$::3>::;$3HLFLAMMju#",
"*FCAHLFAABCFACCccjjpj0 5HPPPLFAFLAAFAFHLLFV 3CVBBNbi$3HFAFMMMjp#",
",FAAHHHACbMAACBMcjjpw1 5FLUTPHFLFAAAHFFFFAM 3FAACCbuX3HAAAbBBbu#",
"*FCMAFABCMBbbMMbcccjw, 5FLUUPAFHFHAAFBCMACl 3FACBMcu 3HHAAAABb1X",
"*ABBCAMbBACljllllcbcu,X5HLLLFAFHHHFABbbbMbu 3FACMMjw 3LBBAAFBj1X",
"*CMBCBMbBABljjjjjlllu, 2FLHHFAFLLLFAllbMcjw 3FACMBlw 3PBFAMBBp1X",
"*CBBMMCMbbccjpjluuwup*X5HPFHHHFHLLHAccbBjj1 3FMBBMjw 3LAMblcMc1X",
"*CMBbcMbllclljujuw0wp, 5FLLFAHAFFFFCBBbbppw 3ABBBllu 3LBclljcl1 ",
"*CBMcccljpjljpuwwu0uu, 5FPYPBCCACBBBBCMcjp1 3FCBBllu >Bppuw0ww* ",
"%ljluuuwu01111,,,1,1,* 5HPULBBCAAMMMMbcbju1 3FBAClpu ;<&&&@@@@oX",
",www0100011,1,*+11,1,*&2FLHHBBCFFCBBBccljw, 3FAAABpu >2<42Or44rt",
"MMMbMMbbbbbcbbu+MMbMbcj&FHFFCAAFFAMBBcjppw, 3AACCClu >NNnloZZZZD",
"LLFAFHFABFABAAl*LLHLFBM%FFFFHAAAACbcbcwwpw, 3CAbbcjw 3FHCb+PPLLI",
"LFAAAHABMACbMBl*LLLHAMl+FHFFLACMBMcccj0wjw, 3ABpjpj1 >FHCjoPLLLK",
"HFAHFABMMBBMbMj*LPHFCBu%FHFFFCCbcllljpupuw, 3Cbpppu, >FMMuoPLLHJ",
"FCAHLFMMBMbblbp*LLFBCBw+MMbbbccjuwww0ww01,* >cpw00,* -bwu1@PPLHS",
"FCBFLLMBMMlclcp%HFAcbbw.===&&&=&@+@@@@@+oOoX;&&+@1,,**01,@:PLHFS",
"FCMBAFBMMMlccjw*HACccc0 $<42242242242422222252:$-BCBCBBBb$3PHAAS",
"HABCCCBCBbccjl0%LHCbljw 5ZZCZZAZZZCZZAZCZAZZBNz$3LULPHFFM 3PHACS",
"HFCBAACBCMbcpp0*HFbMbpwX5LLHHPUPLPLHHLHCHLPLBCp 3LULYPFAb 3PPFAS",
"HABMAHFbMBMbjpw*Ablclpw 5LLHLYETUTYHLFFHHHFAAcw 3LUUYPABl 3PLLFS",
"FCMBFHHABbMMlpw+bjwwww0X5HLHPTTTPTTYHBAMBAMBCpw 3LLHPHCCp >PPPFG",
"FAFAAFHCcblclu0 oo.....X5LPPLLYUHLTUFAMbbbCcbuw 3LUHFFAMp >PPLLF",
"ABCFFAFCjlpju0, ;>>>>>;$5LLLLLHFFHPFFAbBMbbjppu 3LYUFABbp 3PFHLF",
"FCBFFABbljpjju0 tFFFFAN$5HHHPFBCFPFMFAMMBMlllp0 3LUUAAFAw 3PHFLG",
"CBCCFAcljppppww tLFBAClXtLPLPHBBFFAMFFAcMbpcll1 3HLUCAAAw 3PLCCn",
"CBMbBMcjjcbcp1, tHFFCBb 5LPLFLHHAAbbMFAlpjpjll1 3LHFBLFAu 3PBBAZ",
"CCFBcbcllcbcjw< tHACMlu 5LLABFLHFAbccllclu00u0, 3LLPBHHCp 3LBBbn",
"AACMMbjjuwulju, tHHCFb0X5LFHHMFFCbcbbjjllp00jp, 3HHUFBABw 3PLbbn",
"MACMbbbcuwuppp, tHLFccw 5HBHMFAbbllbbbjjppjjpw, 3LUFFBjcu 3PFFCZ",
"MMMbcbbcpppupu0 5LHHBpw 5HFHBFCljjpbbcjpuuuwww1 3LUFCMBcw >PFFCN",
"bMlcblbcppuwup0 tHAClbwX5ABbBBluwwwpppuw11111,, 3LUAMBCcu 3PAFAn",
"MBblcllpp00u0w, tHACCjw $@+o++ooooooooo........X3HLFbcbcu >PABBv",
"MBBbcclpuw0u0w, 5LFCFcw ;:2:3:2>2222222::22:2:-$3FLHAbjj1 3PHBMn",
"lbcjupju11,1,,* tHHMMjw 3VZCCVCCVVVVVBVVBVNCVVn$3FLFLAcj1 >AMclz",
"@&@@+****%**%++XtHHbbpw 5HLPPLLLHFHFFFFFABBHAAcX3HPFHHMp1 ;11,*&",
"$224qppjlccclji$5HFbblw 5LUUUPHHLLPLCCAACMBBBCj 3FLFABcu, ;cbljX",
"2NVZAFHHHHHHHFV$5FFMccw 5LUUYULLLLPHMMMMAACBBMp 3FLAbcju, >CCblX",
"yHLPPUPLLPLFHLCXtFAMjjw 5LPPPUYYLFHBbbbbMCMMbMu 3FHBljpj1 >CbcjX",
"tLPLPTULLLLFHHBX5bcj0w, 5HPPLUTTUAFCbbcccMcbbMu 3FAcjjpp1 >BccuX",
"yLPLPYULAFHLHFM ;==&@@O#5HLPLLPYUHFFCMcljllcclw >ljpww00* >Bclu ",
"yPLHFLPHAAFLHAcX;r44<4:$5FHPPFFPLLFFCBbbjjljju0 ;&&&@@+&oX;vaie ",
"yPLFFFHFAAFHHFc 5CVVnnk$5FLUPAAFHHHAMBBMljlpu01 ;4444444q5yddsi ",
"yPPHHFFAFFFAAFb tLALAClX5FLPLHAFPLLFMbMcjjjpp0, 3VVVVZZZZVVZZZb ",
"yPLLHFAHAFMbCCM tPFFFBj 5HLHHHFHPPPLAMBlpjpjlu0 3HHHLPLLLHALHFn ",
"yPHHFHHLFCblBAbXtPHCAMjX5HLHFFFFLPPPFACjpppjjjw 3LHLYYLHHCAHACl ",
"yPHFFYRPFCCbMAb tPHACBl 5HLLFFFBALLLFAClppppuu0 3LLPUYULHCCACMp ",
"yLHLLWQUACFBbbj tPHFCBpX5FHLACBbMCFFAbbbljppu0, 3HHLHPPHHCCMMcu ",
"yPHPLURLCBAMppuXtPHHAMu 5FHLFCBbbMBMBjlBMclpu01 3LLHAFFFAMMbcppX",
"yLLLLHHCBBMbupw tPLFCbuX5FFLHFFbbMbMMjjCAMcjpu0 3HLFACAFbclcjuu ",
"tLLLHAMBCACBljw tPLFBMp 5FLFHHABMbcbbjpbCBclpu1 3LHFFCAFbcjbbpwX",
"yLHPHBBCMFACbc0 tPHHbbj 5FLFFFCBACccjjpjbccjuu, 3LLLFCHHCblCBp1 ",
"yLHHABBblBFABlwXtPLAljwX5FHFCABBFFCljclpuwup00, 3PLHCFHHHCbCCl1X",
"yHABBBBlpcCCMlu tPHCcj0 5FHFCFLAMACppllpu00u00, 3PLFCFFHFCbbbc1 ",
"yHAccbbBcbMjlpw tHAlljw 5FLHCLLCpllpppwwu00wu11 5PHHHFAMBccbcp1X",
"rFAMnlbjjplljluX5HAbljuX5FHLLAMBpjjjpu0wllpww0w 3PPLAAMbcbblj0p ",
"tFCbbbbbcclcbbk6tABbbbk65FFAFCbMbbbbljppbbbcppk65LFFMCAbbbbccccX",
"gMMNbbvbbnbbbnk9fNNbnbx9hHLNNMNNbbcbnbncbnvbbbz9hLNNbnnbbbnnbbv6",
"mmmmmmmmmmmmmmmmmmmmmmmmmmmmmmmmmmmmmmmmmmmmmmmmmmmmmmmmmmmmmmm9"
};
